# xmcd CD database file
#
# Track frame offsets:
#	150
#	33402
#	52387
#	77414
#	100323
#	128043
#	152192
#	173130
#	192387
#	211209
#	246817
#	261113
#	281033
#	298701
#
# Disc length: 4129 seconds
#
# Revision: 0
# Processed by: cddbd v1.5.2PL0 Copyright (c) Steve Scherf et al.
# Submitted via: CDex 1.70beta2
#
DISCID=cf101f0e
DTITLE=Anachronic Jazz Band - Anthropology
DYEAR=2009
DGENRE=Jazz
TTITLE0='Round Midight
TTITLE1=Anthropology
TTITLE2=Move
TTITLE3=Yardbird Suite
TTITLE4=Ask me now
TTITLE5=Anachronic Blues
TTITLE6=My pet
TTITLE7=Blue Monk
TTITLE8=Tin Tin Deo
TTITLE9='Round Midnight
TTITLE10=Yardbird Suite
TTITLE11=Jordu
TTITLE12=Bernie's Tune
TTITLE13=I'm tired of fattening frogs for snakes
EXTD=YEAR: 2009
EXTT0=
EXTT1=
EXTT2=
EXTT3=
EXTT4=
EXTT5=
EXTT6=
EXTT7=
EXTT8=
EXTT9=
EXTT10=
EXTT11=
EXTT12=
EXTT13=
PLAYORDER=
